<svg id="Layer_1" enable-background="new 0 0 512 512" height="512" viewBox="0 0 512 512" width="512" xmlns="http://www.w3.org/2000/svg"><g><path d="m41.4 359.02c-5.265 0-10.393-.592-15.337-1.681l8.443 77.773c.826 7.613 7.255 13.381 14.912 13.381h63.162c7.657 0 14.086-5.768 14.912-13.381l8.443-77.773c-4.944 1.09-10.071 1.681-15.337 1.681z"/><path d="m342.943 405.573-15.5-13.126c-6.322-5.355-15.787-4.567-21.141 1.753-1.952 2.306-3.079 5.03-3.427 7.82h-93.751c-.349-2.79-1.475-5.514-3.427-7.82-5.355-6.322-14.819-7.107-21.141-1.753l-15.5 13.126c-3.366 2.85-5.307 7.037-5.307 11.447s1.94 8.597 5.307 11.447l15.5 13.126c2.818 2.387 6.261 3.554 9.686 3.554 4.258 0 8.488-1.804 11.455-5.307 1.952-2.306 3.079-5.03 3.427-7.82h93.751c.349 2.79 1.475 5.514 3.427 7.82 2.968 3.503 7.197 5.307 11.455 5.307 3.425 0 6.867-1.167 9.686-3.554l15.5-13.126c3.366-2.85 5.307-7.037 5.307-11.447s-1.94-8.596-5.307-11.447z"/><path d="m146.964 167.571c-15.244 19.759-39.135 32.522-65.964 32.522s-50.72-12.763-65.964-32.522c-9.178 7.637-15.036 19.17-15.036 32.053v87.793c0 22.94 18.572 41.604 41.4 41.604h79.2c22.828 0 41.4-18.663 41.4-41.604v-87.793c0-12.883-5.858-24.416-15.036-32.053z"/><path d="m81 170.094c29.386 0 53.293-23.907 53.293-53.293s-23.907-53.294-53.293-53.294-53.293 23.908-53.293 53.294c0 29.385 23.907 53.293 53.293 53.293z"/><path d="m391.4 359.02c-5.265 0-10.393-.592-15.337-1.681l8.443 77.773c.826 7.613 7.255 13.381 14.912 13.381h63.162c7.657 0 14.086-5.768 14.912-13.381l8.443-77.773c-4.944 1.09-10.071 1.681-15.337 1.681z"/><path d="m496.964 167.571c-15.244 19.759-39.135 32.522-65.964 32.522s-50.72-12.763-65.964-32.522c-9.178 7.637-15.036 19.17-15.036 32.052v87.793c0 22.94 18.572 41.604 41.4 41.604h79.2c22.828 0 41.4-18.663 41.4-41.604v-87.793c0-12.882-5.858-24.415-15.036-32.052z"/><path d="m431 170.094c29.386 0 53.293-23.907 53.293-53.293s-23.907-53.294-53.293-53.294-53.293 23.908-53.293 53.294c0 29.385 23.907 53.293 53.293 53.293z"/></g></svg>