<svg id="Layer_5" enable-background="new 0 0 64 64" height="512" viewBox="0 0 64 64" width="512" xmlns="http://www.w3.org/2000/svg"><g><g><g><path d="m43.7 17.97-.22-4.98c-.05-1.09-.25-2.14-.58-3.13-.28.09-.59.14-.9.14-1.66 0-3-1.34-3-3v-.29c0-.47.11-.93.32-1.34l.26-.52h-.01c-1.01-.89-2.18-1.6-3.45-2.09-1.28-.49-2.67-.76-4.12-.76-6.15 0-11.21 4.84-11.48 10.99l-.2 4.67-.32 7.34s4.02 2.3 8.15 3.41l.64-2.56c-2.18-.54-3.79-2.51-3.79-4.85h-1c-.83 0-1.58-.34-2.12-.88s-.88-1.29-.88-2.12c0-.1.01-.21.02-.31.15-1.51 1.42-2.69 2.98-2.69h1.05c.19-1.42.98-2.69 2.18-3.48l.77-.52 6.35-.11c.42 1.09 1.19 2.03 2.22 2.65l.49.29c.5.3.92.71 1.23 1.18l.01-.01h1.7c1.66 0 3 1.34 3 3 0 .83-.34 1.58-.88 2.12s-1.29.88-2.12.88h-1c0 2.34-1.61 4.31-3.79 4.85l.01.03.63 2.53c4.13-1.11 8.15-3.41 8.15-3.41z" fill="#b27946"/></g><g><path d="m45 6.71v.29c0 1.35-.88 2.48-2.1 2.86-.28.09-.59.14-.9.14-1.66 0-3-1.34-3-3v-.29c0-.47.11-.93.32-1.34l.26-.52.97-1.96c.28-.54.84-.89 1.45-.89s1.17.35 1.45.89l1.23 2.48c.21.41.32.87.32 1.34z" fill="#69d6f4"/></g><g><path d="m43.82 54.9 1.18 7.1h-26l1.18-7.1c.53-3.14 2.27-5.94 4.86-7.79l.16-.11h1.8c.83 0 1.58-.34 2.12-.88.31-.31.56-.69.7-1.12h.01 4.34.01c.14.43.39.81.7 1.12.54.54 1.29.88 2.12.88h1.8l.16.11c2.59 1.85 4.33 4.65 4.86 7.79z" fill="#969faa"/></g><g><path d="m30 44c0-1.66-1.34-3-3-3h-.15c-.37 0-.72.07-1.05.2v-.01l-.64-5.75c-.91.56-2.35 1.68-3.28 3.56h-4.7c.9-5.32 5.29-9.49 10.82-10l.05.15c.57 1.7 2.16 2.85 3.95 2.85.9 0 1.74-.29 2.43-.79s1.23-1.21 1.52-2.06l.05-.15c5.53.51 9.92 4.68 10.82 10h-4.7c-.93-1.89-2.37-3-3.28-3.56l-.64 5.75v.01c-.33-.13-.68-.2-1.05-.2h-.15c-1.66 0-3 1.34-3 3 0 .35.06.69.18 1h-.01-4.34-.01c.12-.31.18-.65.18-1z" fill="#fcd770"/></g><g><path d="m27 41c1.66 0 3 1.34 3 3 0 .35-.06.69-.18 1-.14.43-.39.81-.7 1.12-.54.54-1.29.88-2.12.88h-1.8-3.2c-2.76 0-5-2.24-5-5v-.95c0-.7.06-1.38.18-2.05h4.7c-.22.46-.41.96-.56 1.51-.34 1.26.64 2.49 1.94 2.49h.74l.17-.34c.34-.69.93-1.21 1.63-1.46.33-.13.68-.2 1.05-.2z" fill="#f0d0b4"/></g><g><path d="m37.15 41c.37 0 .72.07 1.05.2.7.25 1.29.77 1.63 1.46l.17.34h.74c1.3 0 2.28-1.24 1.94-2.5-.15-.55-.34-1.05-.56-1.5h4.7c.12.67.18 1.35.18 2.05v.95c0 2.76-2.24 5-5 5h-3.2-1.8c-.83 0-1.58-.34-2.12-.88-.31-.31-.56-.69-.7-1.12-.12-.31-.18-.65-.18-1 0-1.66 1.34-3 3-3z" fill="#f0d0b4"/></g><g><path d="m40 15c1.66 0 3 1.34 3 3 0 .83-.34 1.58-.88 2.12s-1.29.88-2.12.88h-1v-3.74c0-.82-.25-1.6-.71-2.25l.01-.01z" fill="#f0d0b4"/></g><g><path d="m36 29-.05.15c-.29.85-.83 1.56-1.52 2.06s-1.53.79-2.43.79c-1.79 0-3.38-1.15-3.95-2.85l-.05-.15.15-.59.64-2.56c.39.1.79.15 1.21.15h4c.42 0 .82-.05 1.21-.15l.01.03.63 2.53z" fill="#f0d0b4"/></g><g><path d="m39 21c0 2.34-1.61 4.31-3.79 4.85-.39.1-.79.15-1.21.15h-4c-.42 0-.82-.05-1.21-.15-2.18-.54-3.79-2.51-3.79-4.85v-5.32c0-.23.02-.46.05-.68.19-1.42.98-2.69 2.18-3.48l.77-.52 6.35-.11c.42 1.09 1.19 2.03 2.22 2.65l.49.29c.5.3.92.71 1.23 1.18.46.65.71 1.43.71 2.25z" fill="#f0d0b4"/></g><g><path d="m24 15h1.05c-.03.22-.05.45-.05.68v5.32h-1c-.83 0-1.58-.34-2.12-.88s-.88-1.29-.88-2.12c0-.1.01-.21.02-.31.15-1.51 1.42-2.69 2.98-2.69z" fill="#f0d0b4"/></g></g><g><path d="m32.707 13.293c-1.101-1.101-1.707-2.564-1.707-4.122v-.171h-2v.171c0 2.091.814 4.057 2.293 5.536z"/><path d="m38.733 28.528c3.113-1.157 5.63-2.584 5.763-2.66l.529-.302-.548-12.62c-.038-.867-.165-1.723-.377-2.556 1.136-.707 1.9-1.957 1.9-3.39v-.292c0-.618-.146-1.236-.422-1.789l-1.236-2.472c-.446-.892-1.343-1.447-2.342-1.447s-1.896.555-2.342 1.447l-.431.863c-2.103-1.494-4.624-2.31-7.227-2.31-6.705 0-12.186 5.248-12.477 11.946l-.548 12.62.529.302c.133.076 2.65 1.503 5.763 2.66-5.43 1.639-9.267 6.619-9.267 12.517v.955c0 3.309 2.691 6 6 6h.517c-1.738 1.853-2.894 4.176-3.321 6.738l-1.377 8.262h28.361l-1.377-8.262c-.427-2.562-1.583-4.885-3.321-6.738h.518c3.309 0 6-2.691 6-6v-.955c0-5.898-3.837-10.878-9.267-12.517zm-9.196-1.551c.153.011.307.023.463.023h4c.156 0 .31-.012.463-.023l.492 1.967c-.461 1.232-1.631 2.056-2.955 2.056s-2.494-.824-2.955-2.057zm7.033.179-.165-.662c1.82-.8 3.165-2.477 3.505-4.494h.09c1.099 0 2.094-.446 2.818-1.165l.156 3.586c-1.078.573-3.658 1.869-6.404 2.735zm3.264-11.156h.166c1.103 0 2 .897 2 2s-.897 2-2 2v-2.735c0-.432-.058-.856-.166-1.265zm2.166-13c.236 0 .447.131.553.342l1.236 2.473c.138.275.211.584.211.893v.292c0 1.103-.897 2-2 2s-2-.897-2-2v-.292c0-.309.073-.618.211-.894l1.236-2.473c.106-.21.317-.341.553-.341zm-10 0c2.3 0 4.523.76 6.341 2.143-.211.496-.341 1.027-.341 1.565v.292c0 2.206 1.794 4 4 4 .055 0 .107-.014.162-.016.165.671.287 1.353.317 2.05l.083 1.921c-.696-.587-1.582-.955-2.562-.955h-1.23c-.342-.396-.739-.747-1.198-1.022l-.486-.292c-1.286-.772-2.086-2.185-2.086-3.686h-2c0 2.2 1.172 4.269 3.058 5.401l.486.292c.898.538 1.456 1.524 1.456 2.572v3.735c0 2.206-1.794 4-4 4h-4c-2.206 0-4-1.794-4-4v-5.324c0-1.34.666-2.584 1.781-3.328l.773-.516-1.109-1.664-.773.516c-1.193.796-2.035 1.977-2.425 3.316h-.247c-.98 0-1.866.368-2.562.954l.083-1.921c.245-5.626 4.848-10.033 10.479-10.033zm-8 17c-1.103 0-2-.897-2-2s.897-2 2-2zm-2.818.835c.724.719 1.719 1.165 2.818 1.165h.09c.34 2.017 1.685 3.694 3.505 4.494l-.165.662c-2.746-.865-5.326-2.162-6.404-2.735zm6.186 9.261c.856 1.758 2.636 2.904 4.632 2.904s3.777-1.146 4.632-2.904c4.358.679 7.794 3.804 8.948 7.904h-2.872c-.84-1.45-1.931-2.435-2.807-3.052l.093-.837-1.987-.221-.68 6.122c-.061-.003-.12-.012-.181-.012h-.146c-2.206 0-4 1.794-4 4h-2c0-2.206-1.794-4-4-4h-.146c-.061 0-.12.009-.18.012l-.68-6.122-1.987.221.093.835c-.866.612-1.962 1.601-2.805 3.055h-2.875c1.154-4.102 4.59-7.226 8.948-7.905zm12.27 7.213c.814.771 1.652 1.892 2.076 3.455.107.395-.061.693-.17.836-.194.254-.488.4-.806.4h-.128c-.332-.577-.796-1.044-1.339-1.385zm-15.276-.001.367 3.306c-.543.341-1.007.808-1.339 1.385h-.128c-.318 0-.613-.146-.808-.401-.108-.142-.275-.438-.169-.829.422-1.566 1.265-2.691 2.077-3.461zm-6.362 4.692v-.955c0-.353.017-.701.049-1.045h2.388c-.026.085-.06.16-.084.248-.241.892-.054 1.827.512 2.567.577.753 1.45 1.185 2.396 1.185h1.357l.447-.895c.341-.681 1.027-1.105 1.789-1.105h.146c1.103 0 2 .897 2 2s-.897 2-2 2h-5c-2.206 0-4-1.794-4-4zm24.831 13.067.988 5.933h-23.638l.988-5.933c.477-2.858 2.027-5.36 4.362-7.067h1.469c1.474 0 2.75-.81 3.444-2h3.113c.694 1.19 1.97 2 3.444 2h1.47c2.334 1.707 3.883 4.21 4.36 7.067zm3.169-13.067c0 2.206-1.794 4-4 4h-5c-1.103 0-2-.897-2-2s.897-2 2-2h.146c.762 0 1.448.424 1.789 1.105l.447.895h1.356c.946 0 1.819-.432 2.395-1.186.568-.742.754-1.68.512-2.575-.023-.085-.057-.157-.081-.24h2.387c.032.345.049.694.049 1.046z"/><path d="m61.804 38-6.234-4.153 4.118-4.116-9.241-4.621-.894 1.789 6.759 3.38-3.882 3.88 5.766 3.841-5.766 3.842 3.882 3.88-6.76 3.384.896 1.788 9.24-4.625-4.118-4.117z"/><path d="m11.57 41.842-5.766-3.842 5.766-3.841-3.882-3.88 6.759-3.38-.894-1.789-9.241 4.621 4.118 4.116-6.234 4.153 6.234 4.152-4.118 4.117 9.24 4.625.896-1.788-6.76-3.384z"/><path d="m34.105 23.447 1.789-.895c-.787-1.574-2.37-2.552-4.13-2.552h-2.764v2h2.764c.998 0 1.895.555 2.341 1.447z"/></g></g></svg>