<svg height="512" viewBox="0 0 52 60" width="512" xmlns="http://www.w3.org/2000/svg"><g id="Page-1" fill="none" fill-rule="evenodd"><g id="055---Sneeze-Into-Arm" fill="rgb(0,0,0)" fill-rule="nonzero"><path id="Shape" d="m40 31h-5.79c.209-.41.375-.771.492-1.049 2.2121391-.3112175 3.9480562-2.0544962 4.2499095-4.2679325.3018534-2.2134363-.9038829-4.3578777-2.9519095-5.2500675.831-2.87 2.621-11.208-3.31-14.88-2.976-1.842-7.582-1.638-12.461-1.42-6.069.268-12.341.549-14.3-3.5-.19557361-.40303909-.63532996-.62683256-1.07627277-.54771882-.44094281.07911375-.77546813.44182848-.81872723.88771882-.21519034 2.79636478-.02964804 5.60913216.551 8.353.59616066 2.6646272 2.17200877 5.0078758 4.415 6.565v4.209c-2.32662911.478082-3.99738774 2.5247614-4 4.9.00453723 1.0858173.36611991 2.1399943 1.029 3-1.61851152.0126773-3.06666015 1.008329-3.658 2.515l-1.6 4c-.46487287 1.1598838-.35966352 2.470546.28427681 3.5414233.64394032 1.0708773 1.75227168 1.7783418 2.99472319 1.9115767v1.032c0 1.6568542 1.34314575 3 3 3h4.56c.2011706.0022237.4020908-.0148545.6-.051.9928479-.1474233 1.8931334-.6650875 2.52-1.449l.9-1.122c.1890462-.2379875.4760663-.3770819.78-.378h.59c-.0572506 1.1082481-.503812 2.1607308-1.261 2.972-.3222942.3763894-.6803003.7206646-1.069 1.028h-2.67c-6.62444695.0071648-11.99283515 5.375553-12 12 0 1.6568542 1.34314575 3 3 3h32c.1074429-.0002448.2141442-.0178032.316-.052 6.527-2.175 13.019-9.237 15.2-13.5 1.8891744-3.5488483 1.5310779-7.8741545-.916-11.064-3.467-4.334-9.351-4.384-9.6-4.384zm-33.465-22.114c-.3558694-1.6474238-.54912978-3.32580818-.577-5.011 3.265 2.748 8.887 2.5 14.362 2.256 4.358-.2 8.867-.4 11.319 1.123 3.712 2.3 3.52 7.291 2.927 10.513-.9089943-1.8026021-2.3845062-3.2570352-4.2-4.14-1.0014397-.4628512-2.0917731-.7017349-3.195-.7-1.5750531.0293409-3.1205571.4327692-4.509 1.177-2.009435.8972995-4.153295 1.4564939-6.345 1.655-4.5442967.5708162-8.77857931-2.404263-9.782-6.873zm3.465 13.114c.5522847 0 1-.4477153 1-1v-4.021c1.7560476.7390782 3.6753392 1.004248 5.566.769 2.4243069-.219487 4.7940461-.8473377 7.009-1.857 1.8064707-1.0759374 4.0132506-1.2414459 5.96-.447 2.230568 1.2089306 3.7914465 3.365393 4.243 5.862.0951371.3789125.4042121.6664424.789.734v.013c1.5213472.2898098 2.5720562 1.690027 2.4250658 3.2317406-.1469903 1.5417136-1.4433636 2.7181549-2.9920658 2.7152594-.4297093.000039-.8113524.2745966-.948.682-.3024465.8065179-.6804616 1.5826373-1.129 2.318h-14.039c-.2696744.0007694-.5282283-.1074121-.717-.3l-1.823-1.82c-.562043-.5652532-1.3268808-.8821352-2.124-.88h-3.22c-1.65685421 0-2.99999991-1.3431458-2.99999991-3s1.3431457-3 2.99999991-3zm10 17v-6h2v6zm-5.93 1.123-.9 1.122c-.3248586.4038841-.7930525.6668177-1.307.734-.0833453.0159862-.1681596.0230261-.253.021h-4.56c-.55228475 0-1-.4477153-1-1v-1h3c.55228475 0 1-.4477153 1-1s-.44771525-1-1-1h-4.57c-.66100123-.002527-1.27806109-.331487-1.64859044-.8788781s-.44666462-1.2425033-.20340956-1.8571219l1.6-4.007c.29810179-.7615812 1.03416549-1.2611666 1.852-1.257h7.14c.2661383.0007285.5212553.1063685.71.294l1.823 1.823c.5616835.5655421 1.3259266.8834068 2.123.883h.124v6h-1.59c-.9105785-.0027043-1.7724554.410923-2.34 1.123zm3.187 5.15c1.0779531-1.167108 1.6970818-2.6849145 1.743-4.273h6c0 2.744 2.038 4.717 2.981 5.483-.2487908 3.1187797-2.8523128 5.5228847-5.981 5.5228847s-5.7322092-2.404105-5.981-5.5228847c.4481337-.3653735.862472-.7703406 1.238-1.21zm11.907-.408c-1.2311777-.9280733-2.0162807-2.3303021-2.164-3.865h10.616c.1353583.0118818.2458294.1132573.2692693.2470991.0234399.1338417-.046005.2667262-.1692693.3239009zm19.568.675c-1.954 3.823-8 10.418-13.9 12.46h-31.832c-.55228475 0-1-.4477153-1-1 .00606237-5.5203344 4.47966557-9.9939376 10-10h2.069c.5034864 4.0616816 3.9930547 7.0872523 8.0850952 7.010044 4.0920404-.0772083 7.4649932-3.2322605 7.8149048-7.310044l8.473-3.262c1.0217376-.4050145 1.6141466-1.4763177 1.4139804-2.5570203-.2001661-1.0807025-1.1369648-1.8687681-2.2359804-1.8809797h-13.62v-6h16c.052 0 5.165.042 8.038 3.634 1.9573227 2.5758874 2.2286662 6.0579994.694 8.906z"/></g></g></svg>